<svg xmlns='http://www.w3.org/2000/svg' viewBox="-150 0 1000 500" preserveAspectRatio="xMidYMid meet">
  <g transform="translate(0, 559) scale(0.1, -0.1)">
    <path
      fill="#00adef"
      d="M3570 4913 c-91 -7 -289 -43 -403 -72 -157 -41 -285 -89 -447 -169
        l-135 -67 300 -3 301 -2 188 -341 c104 -187 191 -338 195 -337 3 2 155 154
        336 338 l330 335 305 5 305 5 -70 46 c-205 136 -475 227 -767 258 -90 10 -335
        12 -438 4z"
    />
    <path
      fill="#00adef"
      d="M2452 4521 c-482 -323 -747 -783 -702 -1217 24 -231 118 -420 298
        -597 79 -79 79 -79 85 -50 5 24 393 1790 416 1896 5 20 8 37 7 37 0 0 -47 -31
        -104 -69z"
    />
    <path
      fill="#1b2a4c"
      d="M4860 4585 c0 -4 -81 -384 -180 -844 -98 -460 -192 -898 -209 -974
        l-29 -138 39 23 c231 137 486 388 610 603 50 85 106 219 130 311 30 113 37
        323 14 435 -32 161 -102 303 -212 433 -57 68 -163 166 -163 151z"
    />
    <path
fill="#1b2a4c"
      d="M3010 3774 c0 -10 -283 -1347 -296 -1400 -5 -18 2 -22 48 -32 270
        -60 667 -60 938 1 l54 12 28 130 c15 72 83 391 152 710 68 319 123 581 122
        582 -1 2 -62 -58 -136 -132 l-134 -135 -310 2 -311 3 -68 120 c-83 148 -86
        153 -87 139z"
    />
    <!-- m -->
    <path
      fill="#00adef"
      d="M2150 1605 l0 -345 60 0 60 0 2 258 3 257 49 -73 c56 -82 54 -82 113
        9 21 32 41 59 46 59 4 0 7 -115 7 -255 l0 -255 55 0 55 0 0 345 0 345 -64 0
        -64 0 -47 -66 -47 -65 -25 33 c-13 18 -33 48 -44 66 -20 31 -23 32 -90 32
        l-69 0 0 -345z"
    />
    <!-- i -->
    <path fill="#1b2a4c" d="M2698 1605 l-3 -345 58 0 57 0 0 345 0 345 -55 0 -54 0 -3 -345z" />
    <!-- k -->
    <path
      fill="#1b2a4c"
      d="M2910 1605 l0 -345 55 0 55 0 0 115 c0 84 4 124 15 145 9 17 19 30
        24 30 4 0 37 -64 73 -142 l64 -143 67 -3 66 -3 -95 201 c-52 110 -95 204 -97
        209 -1 4 34 65 78 136 44 71 82 132 83 137 2 4 -23 8 -55 8 l-58 0 -75 -115
        c-41 -63 -78 -115 -82 -115 -5 0 -8 52 -8 115 l0 115 -55 0 -55 0 0 -345z"
    />
    <!-- o -->
    <path
      fill="#1b2a4c"
      d="M3425 1935 c-22 -13 -51 -41 -65 -61 -24 -37 -25 -42 -28 -255 -3
        -202 -2 -221 17 -257 73 -142 270 -148 343 -9 21 38 23 58 26 222 3 110 -1
        200 -7 231 -14 59 -60 121 -107 140 -54 22 -133 18 -179 -11z m150 -110 c25
        -24 25 -25 25 -219 l0 -194 -31 -26 c-35 -30 -41 -31 -78 -11 -47 24 -53 54
        -49 248 3 170 4 176 27 201 32 34 74 34 106 1z"
    />
    <!-- s -->
    <path
      fill="#00adef"
      d="M3885 1944 c-79 -43 -109 -99 -103 -195 5 -87 34 -126 144 -192 131
        -78 149 -107 101 -163 -52 -60 -137 -18 -137 67 l0 40 -57 -3 -58 -3 3 -54 c3
        -67 32 -122 85 -158 34 -24 50 -28 107 -28 54 0 73 5 102 24 55 38 81 84 86
        152 7 101 -25 145 -158 215 -39 20 -80 48 -90 62 -56 70 12 167 95 136 25 -10
        45 -59 45 -111 l0 -48 55 0 55 0 0 64 c0 127 -66 202 -184 208 -42 2 -70 -2
        -91 -13z"
    />
    <!-- h -->
    <path
      fill="#1b2a4c"
      d="M4240 1605 l0 -345 60 0 60 0 0 150 0 150 75 0 75 0 0 -150 0 -150
        60 0 60 0 0 345 0 345 -60 0 -60 0 0 -135 0 -135 -75 0 -75 0 0 135 0 135 -60
        0 -60 0 0 -345z"
    />
    <!-- i -->
    <path fill="#1b2a4c" d="M4720 1605 l0 -345 60 0 60 0 0 345 0 345 -60 0 -60 0 0 -345z" />
  </g>
</svg>