
<svg
  xmlns='http://www.w3.org/2000/svg'
  viewBox='0 0 1200 1200'
  preserveAspectRatio='xMidYMid meet'
>
  <g fill='#ff595e' transform='translate(0,1200) scale(0.1,-0.1)'>
    <path
      d="
        M0 6000 l0 -6000 6000 0 6000 0 0 6000 0 6000 -6000 0 -6000 0 0 -6000z m7080 770
        l0 -890 -1077 2 -1078 3 -3 888 -2 887 1080 0 1080 0 0 -890z
        m3170 -960 l0 -100 -1425 0 -1425 0 0 100 0 100 1425 0 1425 0 0 -100z m-5650
        -25 l0 -95 -1425 0 -1425 0 0 95 0 95 1425 0 1425 0 0 -95z m-270 -592 c57
        -26 102 -71 132 -131 22 -45 23 -56 23 -292 l0 -245 -27 -52 c-15 -28 -41 -64
        -58 -80 l-31 -29 62 -81 c81 -109 79 -117 -35 -121 -102 -3 -109 1 -177 100
        -33 48 -45 58 -77 63 -85 14 -98 18 -130 37 -42 25 -77 73 -97 128 -26 75 -40
        286 -26 412 18 165 47 228 132 282 63 40 230 45 309 9z m886 1 c8 -10 11 -111
        10 -332 l-1 -317 -29 -63 c-55 -119 -156 -171 -306 -158 -136 12 -211 67 -246
        183 -15 49 -31 307 -34 542 -1 155 3 161 101 161 43 0 71 -5 76 -12 4 -7 10
        -148 13 -313 5 -261 7 -304 23 -332 21 -39 45 -53 91 -53 46 0 82 17 102 48
        17 26 40 255 30 297 -8 34 -10 344 -3 352 24 23 154 21 173 -3z m861 12 c98
        -26 177 -120 190 -224 7 -63 -13 -87 -66 -78 -20 3 -53 6 -73 6 -29 0 -38 4
        -43 23 -23 82 -52 107 -124 107 -51 0 -89 -32 -101 -85 -5 -22 -10 -105 -10
        -185 0 -80 5 -163 10 -185 17 -75 84 -104 164 -71 32 13 40 26 62 101 l9 30
        85 0 85 0 -1 -67 c-4 -166 -137 -270 -323 -254 -189 18 -254 98 -270 333 -15
        230 12 408 75 482 58 70 207 100 331 67z m-549 -8 c9 -9 12 -104 11 -372 -1
        -199 -4 -390 -8 -426 l-6 -65 -70 -3 c-38 -1 -76 2 -84 7 -11 7 -13 85 -12
        427 1 378 3 420 18 432 21 15 135 16 151 0z m1045 -3 c13 -12 15 -46 14 -185
        -1 -93 -1 -170 0 -170 1 0 56 79 123 175 66 96 130 179 140 185 10 5 57 10
        103 10 65 0 86 -3 90 -15 6 -14 -41 -90 -112 -180 -21 -27 -69 -94 -106 -147
        l-66 -97 41 -61 c23 -34 86 -122 141 -197 54 -74 99 -141 99 -149 0 -24 -34
        -31 -119 -25 -74 6 -86 10 -102 31 -10 14 -61 86 -113 160 -52 74 -102 144
        -110 155 -14 18 -15 4 -16 -152 0 -94 -3 -178 -6 -187 -5 -12 -21 -16 -73 -16
        -112 0 -104 -37 -98 438 4 305 8 416 17 427 17 21 133 21 153 0z m745 3 c17
        -17 17 -839 0 -856 -12 -12 -106 -16 -145 -6 l-23 6 0 418 c0 367 2 421 16
        434 19 19 134 22 152 4z m313 0 c18 -15 85 -120 145 -228 22 -41 64 -113 93
        -160 45 -75 51 -81 51 -55 5 314 12 431 28 443 9 6 44 12 79 12 57 0 64 -2 74
        -24 8 -17 9 -142 3 -438 l-9 -413 -68 -3 c-39 -2 -74 2 -82 8 -7 6 -75 115
        -151 242 l-139 231 -5 -239 -5 -239 -67 -3 c-38 -2 -77 2 -89 9 l-22 11 7 417
        c8 471 2 441 91 441 28 0 58 -6 66 -12z
      "
    />
    <path
      d="
        M5012 7353 l3 -218 985 0 985 0 3 218 2 217 -990 0 -990 0 2 -217z
        m1758 2 l0 -45 -635 0 -635 0 0 45 0 45 635 0 635 0 0 -45z"
      />
    <path
      d="
        M5010 6510 l0 -530 990 0 990 0 0 530 0 530 -990 0 -990 0 0 -530z
        m840 265 l0 -45 -300 0 -300 0 0 45 0 45 300 0 300 0 0 -45z m880 0 l0 -45
        -300 0 -300 0 0 45 0 45 300 0 300 0 0 -45z m-880 -240 l0 -45 -300 0 -300 0
        0 38 c0 21 3 42 7 45 3 4 138 7 300 7 l293 0 0 -45z m880 0 l0 -45 -300 0
        -300 0 0 38 c0 21 3 42 7 45 3 4 138 7 300 7 l293 0 0 -45z m-880 -240 l0 -45
        -300 0 -300 0 0 45 0 45 300 0 300 0 0 -45z m880 0 l0 -45 -300 0 -300 0 0 45
        0 45 300 0 300 0 0 -45z
      "
    />
    <path
      d="
        M4109 5012 c-32 -29 -32 -29 -39 -158 -7 -137 1 -269 20 -303 20 -38
        56 -54 107 -48 91 10 118 82 111 301 -6 191 -30 236 -128 236 -29 0 -48 -7
        -71 -28z
      "
    />
  </g>
</svg>
