<svg
  class="sketch-photo"
  version="1.1"
  width="600pt"
  height="550pt"
  viewBox="20 0 600 550"
  preserveAspectRatio="xMidYMid meet"
>
  <g transform="translate(0.000000,1014.000000) scale(0.100000,-0.100000)" stroke="none" >
    <path class='face' d="
      M3877 9850 c-30 -24 -53 -25 -101 -5 -36 15 -38 15 -67 -10 -17 -14
      -35 -25 -40 -25 -21 0 -7 -38 22 -59 39 -29 30 -40 -14 -16 -28 15 -42 16 -97
      8 -36 -6 -84 -8 -108 -5 -50 5 -91 -20 -71 -45 6 -7 18 -13 25 -13 8 0 14 -7
      14 -15 0 -12 -16 -15 -87 -15 -49 0 -92 -4 -98 -8 -5 -4 -10 -22 -11 -40 -1
      -26 3 -33 22 -38 45 -11 20 -34 -36 -34 -34 0 -49 -18 -23 -26 10 -3 27 -9 38
      -14 22 -9 24 -7 -54 -31 -24 -7 -49 -18 -55 -24 -6 -5 -23 -18 -38 -28 -16
      -10 -28 -24 -28 -32 0 -9 -11 -21 -25 -27 -13 -6 -27 -19 -30 -29 -3 -10 -15
      -21 -26 -24 -26 -8 -19 -28 11 -35 29 -7 35 -23 15 -40 -23 -19 -18 -39 13
      -46 46 -11 45 -15 -12 -52 -58 -36 -72 -66 -37 -77 11 -3 31 -3 45 1 37 9 32
      -7 -16 -56 l-41 -43 26 -22 c33 -26 34 -35 1 -66 -20 -19 -24 -30 -20 -53 4
      -21 -1 -42 -20 -73 -19 -33 -25 -55 -22 -81 3 -22 -1 -46 -10 -59 -8 -13 -11
      -30 -7 -40 4 -10 9 -31 11 -48 5 -46 42 -275 53 -325 5 -25 23 -81 40 -125 17
      -44 31 -88 31 -98 0 -10 6 -30 14 -46 8 -15 22 -68 31 -117 10 -49 27 -113 40
      -143 l23 -55 7 33 c4 18 4 119 1 224 -5 147 -3 213 8 282 33 198 64 319 112
      431 29 66 48 94 87 129 32 30 53 42 61 36 6 -4 26 -11 45 -13 31 -5 39 0 81
      44 30 32 51 47 62 43 8 -3 35 1 59 9 24 9 48 16 52 16 5 0 -4 -22 -20 -49 -15
      -28 -24 -53 -20 -57 10 -10 73 12 119 42 26 17 45 22 70 18 22 -3 46 2 73 15
      53 28 64 26 72 -10 4 -20 14 -34 29 -40 13 -4 24 -13 24 -19 0 -5 9 -10 20
      -10 13 0 22 -9 26 -25 7 -27 23 -32 41 -14 8 8 13 5 18 -10 10 -31 33 -25 44
      12 l9 32 7 -33 c5 -19 20 -42 36 -55 25 -18 29 -27 29 -72 0 -39 6 -61 25 -89
      30 -45 31 -63 5 -71 -12 -4 -48 -29 -80 -56 -33 -27 -65 -49 -72 -49 -8 0 -34
      -21 -60 -47 -44 -46 -46 -50 -42 -100 2 -29 10 -68 18 -87 12 -30 13 -57 6
      -158 -25 -317 -28 -384 -19 -400 5 -9 9 -46 9 -82 0 -58 -3 -69 -33 -108 -28
      -36 -38 -42 -63 -40 -95 10 -109 8 -112 -16 -5 -34 54 -57 109 -41 36 11 41
      10 64 -11 27 -25 32 -49 13 -68 -16 -16 6 -40 46 -50 44 -12 40 -36 -7 -40
      -24 -2 -42 -10 -50 -23 -6 -10 -17 -19 -24 -19 -7 0 -21 -10 -32 -21 -14 -15
      -27 -20 -44 -15 -14 3 -37 0 -53 -9 -16 -8 -34 -15 -40 -15 -6 0 -19 -9 -29
      -20 -11 -12 -31 -20 -50 -20 -46 0 -61 -21 -40 -54 10 -14 20 -26 24 -26 13 0
      107 32 136 47 42 21 129 43 173 43 30 0 42 -6 65 -34 l27 -35 -35 -27 c-19
      -14 -35 -34 -35 -43 0 -9 -5 -22 -11 -28 -19 -19 -2 -43 28 -43 48 0 75 -21
      89 -70 15 -50 18 -100 7 -100 -5 0 -19 -16 -32 -36 -21 -30 -23 -39 -13 -55
      16 -26 15 -89 -3 -132 -25 -60 -20 -86 20 -103 19 -8 35 -18 35 -22 0 -29 -87
      -84 -144 -92 -22 -3 -41 -9 -42 -15 -7 -25 107 -72 219 -90 40 -6 117 -66 117
      -91 0 -13 24 -30 70 -49 72 -30 88 -47 97 -107 10 -63 6 -78 -39 -120 -31 -29
      -37 -58 -12 -58 9 0 29 -14 45 -31 28 -30 29 -33 13 -50 -9 -11 -40 -30 -69
      -43 l-52 -23 -6 -63 c-6 -49 -4 -67 8 -80 8 -9 15 -25 15 -35 0 -10 7 -23 15
      -29 9 -6 23 -42 31 -78 15 -63 14 -69 -3 -92 -21 -30 -67 -41 -106 -27 -16 6
      -43 11 -62 11 -34 0 -77 30 -151 106 -16 16 -61 55 -100 86 -38 32 -88 79
      -110 105 -21 26 -53 63 -69 83 -106 122 -150 210 -149 294 0 37 7 73 17 91 20
      36 22 75 4 75 -7 0 -26 -13 -41 -29 -29 -30 -170 -104 -221 -116 -27 -6 -107
      -40 -167 -71 -14 -8 -33 -14 -41 -14 -12 0 -89 -30 -192 -75 -31 -14 -144 -69
      -230 -112 -27 -14 -66 -32 -85 -40 -41 -18 -37 -16 -305 -153 -115 -58 -250
      -131 -300 -161 -91 -56 -216 -119 -235 -119 -35 0 -145 -102 -173 -160 -12
      -25 -40 -74 -63 -110 -63 -100 -93 -161 -148 -300 -10 -25 -23 -56 -28 -70 -6
      -14 -21 -58 -34 -97 -13 -40 -28 -81 -33 -90 -4 -10 -21 -45 -37 -78 l-29 -60
      -7 55 c-4 30 -9 88 -12 128 -3 41 -6 75 -8 77 -10 10 -79 -23 -89 -42 -16 -30
      -27 -29 -34 5 -4 15 -11 35 -16 45 -5 9 -7 28 -3 41 4 19 1 26 -15 31 -12 3
      -21 11 -21 16 0 5 -5 9 -11 9 -17 0 8 -565 30 -679 6 -29 11 -86 11 -125 0
      -39 7 -127 15 -196 8 -69 15 -161 15 -205 0 -44 7 -127 15 -185 15 -113 11
      -394 -7 -417 -5 -6 -12 -38 -14 -70 -3 -32 -12 -82 -21 -111 -20 -71 -12 -78
      97 -92 168 -21 216 -28 260 -39 107 -25 232 -41 325 -42 55 -1 143 -4 195 -8
      85 -5 95 -8 92 -24 -2 -10 8 -30 23 -45 16 -16 23 -32 20 -41 -4 -9 -9 -32
      -12 -51 -3 -19 -14 -44 -24 -56 -14 -14 -18 -29 -14 -50 4 -19 -1 -43 -14 -67
      -11 -21 -17 -46 -14 -55 5 -11 2 -14 -10 -9 -21 8 -32 -8 -46 -68 -11 -45 -54
      -132 -71 -145 -4 -3 -12 -27 -19 -55 -8 -27 -22 -68 -32 -91 -11 -22 -19 -51
      -19 -65 0 -14 -5 -30 -11 -36 -6 -6 -14 -26 -18 -45 -6 -29 -10 -33 -34 -30
      -24 3 -27 0 -27 -26 0 -17 6 -32 15 -36 19 -7 19 -21 -1 -41 -9 -9 -13 -23 -9
      -33 9 -25 8 -26 -15 -32 -20 -5 -22 -13 -25 -80 -4 -111 -25 -242 -45 -281 -4
      -8 -4 -23 1 -31 6 -11 5 -19 -1 -23 -16 -10 -11 -63 10 -105 12 -24 16 -41 10
      -45 -14 -9 -12 -53 3 -62 7 -4 23 -33 36 -63 28 -66 47 -90 73 -90 11 0 22 -9
      25 -20 3 -11 12 -20 19 -20 8 0 19 -11 24 -24 6 -16 19 -26 44 -30 33 -6 36
      -10 36 -42 0 -28 5 -37 28 -46 15 -7 59 -40 98 -75 l72 -63 3361 0 3361 0 0
      3659 c0 3477 -1 3660 -17 3664 -17 4 -17 5 0 6 13 1 17 10 17 36 0 33 -2 35
      -35 35 -23 0 -35 5 -35 14 0 8 -7 17 -16 20 -10 4 -13 13 -9 27 5 14 3 19 -4
      15 -5 -4 -19 2 -30 13 -16 16 -28 19 -52 14 -27 -5 -31 -4 -26 10 8 20 -18 47
      -44 47 -11 0 -19 6 -18 13 1 6 -5 28 -13 47 -16 34 -17 34 -79 36 -53 1 -63 4
      -70 21 -7 19 -19 24 -89 36 -8 1 -26 8 -39 16 -15 8 -38 11 -62 7 -39 -6 -69
      0 -69 15 0 5 9 9 19 9 25 0 37 18 22 33 -9 9 -15 8 -22 -5 -8 -15 -13 -16 -32
      -5 -12 6 -26 18 -30 25 -4 6 -23 12 -42 12 -27 0 -37 6 -52 30 -17 30 -46 39
      -58 20 -5 -8 -11 -7 -21 1 -8 6 -23 9 -34 6 -13 -3 -24 1 -30 13 -12 22 -51
      35 -43 14 6 -17 -57 -20 -74 -3 -17 17 -46 -32 -38 -64 4 -14 4 -35 0 -46 -6
      -20 -8 -20 -28 -6 -27 19 -57 19 -85 0 -20 -15 -23 -14 -39 5 -22 25 -28 25
      -51 0 -19 -21 -19 -21 -43 27 -12 26 -24 62 -25 78 -1 17 -7 48 -13 70 -5 22
      -13 54 -16 70 -10 50 -28 109 -37 122 -5 6 -8 22 -7 35 4 42 -1 58 -16 58 -8
      0 -15 7 -15 15 0 9 -13 23 -29 33 -25 14 -29 22 -28 59 0 47 -16 73 -45 73
      -10 0 -18 6 -17 13 4 32 -14 77 -32 77 -11 0 -20 -8 -20 -17 -1 -10 -3 -38 -4
      -63 -10 -162 -25 -299 -35 -325 -6 -16 -11 -32 -11 -35 0 -3 -2 -13 -5 -22 -4
      -14 -10 -16 -23 -8 -20 10 -41 -4 -41 -27 0 -7 -4 -13 -10 -13 -5 0 -10 -14
      -10 -30 0 -31 -19 -48 -39 -35 -7 4 -7 12 1 25 16 25 3 38 -22 22 -17 -10 -20
      -9 -26 13 -7 27 -34 35 -34 10 0 -8 -7 -15 -15 -15 -8 0 -15 5 -15 11 0 16
      -42 48 -65 49 -27 0 -49 15 -41 28 11 19 -11 22 -40 7 -16 -8 -32 -25 -35 -37
      -6 -27 -35 -26 -62 3 -10 10 -24 16 -33 12 -11 -4 -15 0 -12 13 3 17 -3 19
      -59 16 -34 -1 -64 2 -68 8 -8 14 -45 13 -45 -1 0 -8 -5 -7 -15 1 -13 10 -19
      10 -34 -4 -14 -13 -24 -15 -38 -8 -10 5 -25 7 -33 5 -8 -3 -6 1 5 10 20 15 20
      16 -4 41 -28 30 -39 32 -56 10 -10 -15 -14 -15 -45 1 -29 15 -38 15 -71 5 -31
      -11 -41 -11 -54 0 -22 19 -125 22 -132 4 -3 -8 -14 -14 -24 -14 -12 0 -16 -5
      -13 -15 4 -10 0 -15 -14 -15 -27 0 -38 31 -16 47 10 7 15 16 11 19 -12 12 -56
      -6 -62 -25 -7 -23 -57 -32 -97 -17 -24 9 -31 8 -38 -5 -5 -9 -24 -22 -41 -30
      -31 -12 -33 -12 -66 27 -44 52 -50 82 -52 254 -2 87 -7 150 -13 158 -6 7 -12
      45 -13 85 -2 78 -30 203 -50 227 -7 8 -16 30 -20 47 -3 18 -14 39 -23 46 -36
      27 -56 59 -54 87 2 21 -3 30 -18 35 -11 3 -20 10 -20 15 0 5 -8 11 -19 15 -13
      4 -20 18 -24 51 -2 25 -12 53 -21 63 -10 11 -14 25 -9 37 6 17 5 17 -10 5 -24
      -19 -47 -8 -40 20 5 19 3 21 -21 17 -37 -7 -58 15 -46 48 15 39 12 47 -14 40
      -33 -8 -56 2 -56 25 0 27 -60 79 -92 79 -17 0 -31 8 -38 20 -7 14 -17 19 -29
      15 -12 -3 -25 4 -40 24 -12 16 -63 55 -112 86 -48 32 -91 66 -94 76 -8 24 -34
      24 -51 2 -12 -17 -15 -15 -43 18 -39 47 -84 66 -115 50 -18 -10 -35 -9 -85 4
      -35 9 -65 14 -68 11 -3 -2 -23 4 -46 14 -28 13 -54 17 -78 14 -22 -4 -39 -2
      -43 5 -12 19 -92 13 -133 -10 -29 -16 -41 -19 -55 -10 -10 6 -31 11 -48 11
      -16 0 -47 9 -67 20 -21 11 -47 20 -59 20 -12 0 -33 -9 -47 -20z m698 -1650 c6
      -10 -87 -110 -103 -110 -18 0 -71 -62 -77 -91 -4 -16 -11 -29 -17 -29 -12 0
      -2 134 12 161 12 22 47 44 101 63 52 18 76 20 84 6z m315 -445 c29 -26 44 -83
      41 -154 -3 -69 -19 -110 -56 -145 -12 -11 -32 -40 -44 -63 -14 -29 -28 -43
      -41 -43 -36 0 -173 135 -185 183 -4 15 -11 30 -16 33 -17 10 -9 75 11 101 11
      14 20 37 20 52 1 42 47 58 158 56 72 -2 97 -6 112 -20z m590 -649 c0 -8 -4
      -18 -10 -21 -5 -3 -10 3 -10 14 0 12 5 21 10 21 6 0 10 -6 10 -14z m48 -75
      c17 -17 32 -35 32 -40 0 -6 9 -11 19 -11 11 0 28 -15 41 -35 27 -43 57 -65 90
      -65 14 0 34 -7 44 -15 11 -8 28 -15 38 -15 10 0 18 -4 18 -9 0 -4 12 -20 26
      -34 14 -14 23 -30 20 -36 -8 -13 37 -61 57 -61 8 0 28 -11 44 -24 15 -12 34
      -21 42 -18 10 3 12 0 8 -12 -12 -31 80 -103 140 -111 28 -4 80 -44 88 -68 4
      -9 23 -26 43 -36 45 -23 94 -73 90 -92 -2 -8 5 -14 17 -14 13 0 21 -8 23 -22
      2 -16 -2 -23 -12 -23 -10 0 -16 -9 -16 -25 0 -26 37 -51 70 -46 9 1 11 -1 5
      -6 -14 -11 -36 -74 -29 -84 2 -4 11 -6 19 -2 22 8 19 -23 -5 -47 -11 -11 -17
      -26 -14 -35 4 -8 1 -15 -5 -15 -16 0 -41 -55 -41 -89 0 -21 6 -32 21 -36 41
      -13 -3 -25 -96 -25 -82 0 -214 18 -290 40 -16 5 -55 12 -85 16 -30 4 -59 10
      -65 14 -5 4 -38 10 -73 13 -34 3 -68 9 -75 14 -25 20 -105 42 -172 48 -107 10
      -111 12 -130 61 -37 98 -46 168 -52 422 -5 241 -5 257 17 330 12 42 31 108 42
      145 14 50 23 67 33 63 8 -3 17 -1 20 4 10 15 18 12 53 -19z m-553 -1751 c3 -5
      15 -10 25 -10 14 0 22 -10 28 -37 5 -21 14 -59 20 -86 7 -26 12 -72 12 -103 0
      -30 5 -64 10 -74 8 -15 4 -25 -22 -49 -45 -42 -68 -39 -114 13 -85 96 -97 146
      -47 193 12 12 23 29 23 37 0 21 43 126 52 126 4 0 10 -4 13 -10z m243 -193 c6
      -7 16 -34 22 -60 7 -26 18 -47 26 -47 24 0 26 -20 2 -30 -13 -6 -42 -22 -66
      -36 -44 -26 -62 -25 -62 4 -1 9 -7 33 -14 53 -11 32 -11 41 6 75 26 53 62 71
      86 41z m-3918 -943 c0 -21 -4 -33 -10 -29 -5 3 -10 19 -10 36 0 16 5 29 10 29
      6 0 10 -16 10 -36z m6571 -1043 c17 -19 28 -126 27 -281 0 -146 -2 -178 -16
      -193 -14 -16 -14 -18 3 -31 12 -9 15 -15 7 -20 -13 -8 -17 -88 -5 -99 3 -4 8
      -17 9 -30 12 -90 22 -135 33 -155 7 -13 10 -35 7 -48 -6 -24 29 -125 46 -132
      5 -2 5 -8 2 -14 -18 -29 -13 -90 10 -126 15 -22 27 -60 31 -94 6 -44 15 -66
      40 -95 25 -30 32 -45 28 -66 -3 -15 -2 -35 3 -44 4 -10 9 -25 10 -33 2 -8 6
      -24 9 -35 6 -21 -49 -105 -70 -105 -16 0 -86 -40 -119 -67 l-28 -24 -21 42
      c-11 22 -27 43 -35 47 -18 6 -43 -24 -35 -44 3 -8 -3 -17 -13 -21 -41 -15 -74
      -47 -68 -65 3 -10 1 -18 -5 -18 -10 0 -13 13 -15 87 -1 35 -25 68 -33 46 -6
      -17 -23 -17 -23 0 0 13 -43 102 -60 122 -21 26 -80 145 -80 163 0 10 -10 38
      -22 63 -21 40 -23 59 -24 218 -2 215 12 309 62 408 20 39 34 75 31 80 -3 4 1
      31 8 58 7 28 9 59 5 70 -14 35 -40 127 -40 139 0 6 -13 43 -29 81 -16 39 -33
      94 -38 123 -9 50 -8 55 12 68 46 30 373 51 396 25z"
    />
    <path class='face' d="
      M3555 8240 c-11 -5 -33 -9 -50 -9 -16 -1 -52 -9 -78 -18 -40 -15 -51
      -15 -69 -4 -18 11 -24 10 -47 -7 -14 -10 -39 -38 -55 -61 -40 -55 -25 -69 33
      -30 38 25 46 27 60 15 13 -11 34 -12 126 -2 61 6 174 10 253 9 l142 -1 0 29
      c0 25 -6 33 -37 46 -39 16 -189 43 -233 42 -14 0 -34 -4 -45 -9z"
    />
    <path class='face' d="M6550 8162 c0 -5 7 -13 16 -16 10 -4 14 -1 12 6 -5 15 -28 23 -28 10z" />
    <path class='face' d="
      M3700 8018 c-14 -4 -72 -19 -130 -33 -58 -14 -118 -34 -135 -44 -34
      -19 -97 -108 -93 -131 2 -9 25 -19 60 -26 48 -9 73 -8 155 7 54 11 103 17 108
      15 6 -3 2 -5 -7 -5 -10 -1 -18 -7 -18 -15 0 -7 -20 -26 -45 -41 -24 -16 -43
      -31 -40 -33 6 -7 112 27 156 49 43 21 64 44 49 54 -18 11 -11 25 13 25 16 0
      32 12 50 41 35 53 35 93 2 115 -33 22 -93 32 -125 22z m-42 -146 c3 -17 -2
      -22 -17 -22 -14 0 -21 6 -21 18 0 38 33 41 38 4z"
    />
    <path class='face' d="
      M3711 7268 c-62 -69 -91 -112 -82 -121 26 -26 105 49 117 111 8 38
      -5 41 -35 10z"
    />
  </g>
</svg>
