<svg
  xmlns="http://www.w3.org/2000/svg"
  viewBox="72 14 355 122"
  preserveAspectRatio="xMidYMid"
>
<defs>
  <filter id="editing-jagged" x="-100%" y="-100%" width="300%" height="300%">
    <feTurbulence result="turb" baseFrequency="0.1" numOctaves="1" seed="1"></feTurbulence>
    <feDisplacementMap in="SourceGraphic" in2="turb" scale="10"></feDisplacementMap>
  </filter>
  </defs>
    <g filter="url(#editing-jagged)">
      <g transform="translate(127.1190015077591, 99)">
        <path
          d="
            M6.53 0L-0.83 0L10.75-42.24L24.13-42.24L27.07-18.11L38.98-42.24L50.18-42.24L51.33-10.62L51.33-10.62
            Q51.58-4.35 54.66-2.43L54.66-2.43L54.66-2.43Q53.95-1.15 51.90 0.06L51.90 0.06L51.90 0.06Q49.86 1.28 47.14 1.28L47.14 1.28
            L47.14 1.28Q44.42 1.28 42.82 0.51L42.82 0.51L42.82 0.51Q41.22-0.26 40.32-1.54L40.32-1.54L40.32-1.54Q38.72-3.84 38.72-8.26
            L38.72-8.26L38.72-28.03L26.11 0L18.18 0L13.70-28.74L6.53 0ZM72.77-3.52L72.77-3.52L72.77-3.52Q70.78 1.28 64.45 1.28L64.45 1.28
            L64.45 1.28Q61.18 1.28 59.14-0.96L59.14-0.96L59.14-0.96Q57.41-2.94 57.41-4.93L57.41-4.93L57.41-4.93Q57.41-10.11 59.78-20.22
            L59.78-20.22L62.14-32.64L75.14-33.92L71.23-13.70L71.23-13.70Q70.14-8.96 70.14-7.30L70.14-7.30L70.14-7.30Q70.14-3.65 72.77-3.52Z
            M63.30-41.54L63.30-41.54L63.30-41.54Q63.30-44.03 65.38-45.38L65.38-45.38L65.38-45.38Q67.46-46.72 70.46-46.72L70.46-46.72L70.46-46.72
            Q73.47-46.72 75.30-45.38L75.30-45.38L75.30-45.38Q77.12-44.03 77.12-41.54L77.12-41.54L77.12-41.54Q77.12-39.04 75.10-37.76L75.10-37.76L75.10-37.76
            Q73.09-36.48 70.08-36.48L70.08-36.48L70.08-36.48Q67.07-36.48 65.18-37.76L65.18-37.76L65.18-37.76Q63.30-39.04 63.30-41.54ZM94.72-30.34L94.72-30.34
            L94.72-30.34Q98.18-33.92 105.47-33.92L105.47-33.92L105.47-33.92Q109.50-33.92 111.71-31.78L111.71-31.78L111.71-31.78Q113.92-29.63 113.92-25.70
            L113.92-25.70L113.92-25.70Q113.92-21.76 111.71-18.98L111.71-18.98L111.71-18.98Q109.50-16.19 105.41-15.04L105.41-15.04L105.41-15.04Q105.73-13.76 106.18-12.42
            L106.18-12.42L107.07-9.86L107.07-9.86Q108.29-6.59 109.25-5.44L109.25-5.44L109.25-5.44Q110.21-4.29 111.49-3.90L111.49-3.90L111.49-3.90Q110.78-1.28 108.22 0.13
            L108.22 0.13L108.22 0.13Q106.18 1.28 103.36 1.28L103.36 1.28L103.36 1.28Q95.10 1.28 94.02-11.46L94.02-11.46L94.02-11.46Q93.82-13.25 93.82-15.04
            L93.82-15.04L93.82-15.04Q97.02-15.94 99.26-18.94L99.26-18.94L99.26-18.94Q101.50-21.95 101.50-25.47L101.50-25.47L101.50-25.47Q101.50-28.99 99.01-28.99
            L99.01-28.99L99.01-28.99Q97.22-28.99 95.81-27.01L95.81-27.01L95.81-27.01Q94.40-25.02 93.76-21.63L93.76-21.63L89.54 0L76.61 1.28L85.57-44.80L98.43-46.08
            L96.96-38.46L96.96-38.46Q96-33.09 94.72-30.34ZM130.82 1.28L130.82 1.28L130.82 1.28Q116.74 1.28 116.74-11.97L116.74-11.97L116.74-11.97Q116.74-21.38 121.92-27.46
            L121.92-27.46L121.92-27.46Q127.42-33.92 136.96-33.92L136.96-33.92L136.96-33.92Q143.87-33.92 147.39-30.72L147.39-30.72L147.39-30.72Q150.91-27.52 150.91-20.80L150.91-20.80
            L150.91-20.80Q150.91-10.56 145.41-4.61L145.41-4.61L145.41-4.61Q140.03 1.28 130.82 1.28ZM132.48-26.56L132.48-26.56L132.48-26.56Q131.71-24.83 131.10-22.24
            L131.10-22.24L131.10-22.24Q130.50-19.65 129.73-15.55L129.73-15.55L129.73-15.55Q128.96-11.46 128.96-6.40L128.96-6.40L128.96-6.40Q128.96-4.74 129.50-3.65
            L129.50-3.65L129.50-3.65Q130.05-2.56 131.52-2.56L131.52-2.56L131.52-2.56Q132.99-2.56 133.92-3.26L133.92-3.26L133.92-3.26Q134.85-3.97 135.55-5.63
            L135.55-5.63L135.55-5.63Q136.83-8.58 137.86-14.05L137.86-14.05L137.86-14.05Q138.88-19.52 138.98-21.89L138.98-21.89L138.98-21.89Q139.07-24.26 139.07-26.02
            L139.07-26.02L139.07-26.02Q139.07-27.78 138.56-28.93L138.56-28.93L138.56-28.93Q138.05-30.08 136.61-30.08L136.61-30.08L136.61-30.08Q135.17-30.08 134.21-29.18
            L134.21-29.18L134.21-29.18Q133.25-28.29 132.48-26.56ZM173.82-22.46L173.82-22.46L173.82-22.46Q174.72-24.83 174.72-26.88L174.72-26.88L174.72-26.88
            Q174.72-30.66 171.65-30.66L171.65-30.66L171.65-30.66Q170.05-30.66 168.74-29.22L168.74-29.22L168.74-29.22Q167.42-27.78 167.42-25.98L167.42-25.98L167.42-25.98
            Q167.42-24.70 168.45-23.68L168.45-23.68L168.45-23.68Q169.92-22.27 173.70-19.97L173.70-19.97L173.70-19.97Q177.47-17.66 178.91-15.78L178.91-15.78L178.91-15.78
            Q180.35-13.89 180.35-11.30L180.35-11.30L180.35-11.30Q180.35-8.70 179.10-6.34L179.10-6.34L179.10-6.34Q177.86-3.97 175.62-2.30L175.62-2.30L175.62-2.30
            Q170.82 1.28 163.14 1.28L163.14 1.28L163.14 1.28Q158.98 1.28 155.78-0.90L155.78-0.90L155.78-0.90Q152.58-3.01 152.58-5.50L152.58-5.50L152.58-5.50
            Q152.58-8 154.40-9.47L154.40-9.47L154.40-9.47Q156.22-10.94 158.91-10.94L158.91-10.94L158.91-10.94Q161.60-10.94 163.26-9.92L163.26-9.92L163.26-9.92
            Q162.43-7.81 162.43-6.40L162.43-6.40L162.43-6.40Q162.43-2.18 166.02-2.18L166.02-2.18L166.02-2.18Q167.55-2.18 168.58-3.14L168.58-3.14L168.58-3.14
            Q169.60-4.10 169.60-5.76L169.60-5.76L169.60-5.76Q169.60-9.02 164.10-12.48L164.10-12.48L164.10-12.48Q159.62-15.42 158.59-16.58L158.59-16.58L158.59-16.58
            Q156.86-18.62 156.86-21.18L156.86-21.18L156.86-21.18Q156.86-23.74 158.08-26.18L158.08-26.18L158.08-26.18Q159.30-28.61 161.54-30.34L161.54-30.34L161.54-30.34
            Q166.21-33.92 174.34-33.92L174.34-33.92L174.34-33.92Q178.50-33.92 180.96-32.26L180.96-32.26L180.96-32.26Q183.42-30.59 183.42-27.78L183.42-27.78L183.42-27.78
            Q183.42-24.96 181.73-23.36L181.73-23.36L181.73-23.36Q180.03-21.76 176.96-21.76L176.96-21.76L176.96-21.76Q174.85-21.76 173.82-22.46ZM217.98-7.10L217.98-7.10
            L217.98-7.10Q217.98-4.29 220.86-3.46L220.86-3.46L220.86-3.46Q220.16-1.09 217.41 0.19L217.41 0.19L217.41 0.19Q215.10 1.28 212.58 1.28L212.58 1.28L212.58 1.28
            Q210.05 1.28 208.74 0.61L208.74 0.61L208.74 0.61Q207.42-0.06 206.72-1.15L206.72-1.15L206.72-1.15Q205.57-2.82 205.57-5.95L205.57-5.95L205.57-5.95
            Q205.57-7.81 206.59-12.93L206.59-12.93L207.49-17.79L207.49-17.79Q208.58-23.36 208.58-25.41L208.58-25.41L208.58-25.41Q208.58-28.99 206.59-28.99
            L206.59-28.99L206.59-28.99Q204.10-28.99 202.50-25.34L202.50-25.34L202.50-25.34Q201.86-23.94 201.41-21.82L201.41-21.82L197.06 0L184.19 1.28L193.22-44.80
            L206.08-46.08L205.57-43.52L205.57-43.52Q203.78-33.66 202.24-30.34L202.24-30.34L202.24-30.34Q205.82-33.92 212.42-33.92L212.42-33.92L212.42-33.92
            Q219.39-33.92 220.67-29.31L220.67-29.31L220.67-29.31Q221.12-27.84 221.12-26.56L221.12-26.56L221.12-26.56Q221.12-25.28 221.02-24.29L221.02-24.29L221.02-24.29
            Q220.93-23.30 220.61-21.50L220.61-21.50L219.78-16.90L218.30-9.66L218.30-9.66Q217.98-8.19 217.98-7.10ZM241.41-3.52L241.41-3.52L241.41-3.52
            Q239.42 1.28 233.09 1.28L233.09 1.28L233.09 1.28Q229.82 1.28 227.78-0.96L227.78-0.96L227.78-0.96Q226.05-2.94 226.05-4.93L226.05-4.93L226.05-4.93
            Q226.05-10.11 228.42-20.22L228.42-20.22L230.78-32.64L243.78-33.92L239.87-13.70L239.87-13.70Q238.78-8.96 238.78-7.30L238.78-7.30L238.78-7.30
            Q238.78-3.65 241.41-3.52ZM231.94-41.54L231.94-41.54L231.94-41.54Q231.94-44.03 234.02-45.38L234.02-45.38L234.02-45.38Q236.10-46.72 239.10-46.72
            L239.10-46.72L239.10-46.72Q242.11-46.72 243.94-45.38L243.94-45.38L243.94-45.38Q245.76-44.03 245.76-41.54L245.76-41.54L245.76-41.54
            Q245.76-39.04 243.74-37.76L243.74-37.76L243.74-37.76Q241.73-36.48 238.72-36.48L238.72-36.48L238.72-36.48Q235.71-36.48 233.82-37.76L233.82-37.76
            L233.82-37.76Q231.94-39.04 231.94-41.54Z" fill="#444"
          />
      </g>
    </g>
  <style>
    text {
      font-size: 64px;
      font-family: Arial Black;
      dominant-baseline: central;
      text-anchor: middle;
    }
  </style>
</svg>